<svg width="65" height="64" viewBox="0 0 65 64" fill="none" xmlns="http://www.w3.org/2000/svg">
<g clip-path="url(#clip0)">
<rect x="0.5" width="64" height="64" rx="32" fill="url(#paint0_linear)"/>
<path d="M49.7514 28.9136C51.8256 29.303 44.234 46.4562 43.4187 46.1447C42.6793 47.1377 41.4943 48.3839 39.8637 49.9026C39.3461 50.4477 38.6428 51.1877 37.7535 51.1877H26.4231C25.5338 51.1877 24.8304 50.4477 24.3109 49.9026C21.2754 47.1767 18.9794 43.9057 17.4228 40.0895C15.3504 35.0078 14.3133 30.7828 14.3133 27.4339C14.3133 26.363 15.3504 24.9417 16.0899 24.9417H48.0848C48.5303 24.9417 49.8632 26.8303 49.8632 27.4339C49.8632 28.0375 49.8253 28.5437 49.7514 28.9136Z" fill="white"/>
<g opacity="0.7">
<path d="M39.6499 23.9538H27.3184C27.1705 23.5467 26.4481 23.0865 25.1531 22.2192C23.8563 21.3696 23.2078 20.4138 23.2078 19.3694C23.2078 18.5375 23.5225 17.7588 24.152 17.0331C24.7815 16.3074 25.5039 15.8116 26.3191 15.5284C26.0973 16.3603 25.9855 17.0862 25.9855 17.7057C25.9855 18.3429 26.7079 19.1925 28.1526 20.3076C29.5955 21.405 30.3178 22.3786 30.3178 23.2105C30.3178 23.6176 30.2818 23.7591 30.2079 23.9538H36.4286C36.5765 23.2634 36.6505 22.9626 36.6505 22.6971C36.6505 21.6528 36.1329 20.75 35.0957 19.9889C34.0586 19.2278 33.0215 18.396 31.9844 17.4579C30.9473 16.5198 30.4297 15.3691 30.4297 13.9885C30.4297 12.5371 30.9303 11.1743 31.9295 9.93527C32.9287 8.69625 34.1704 7.89978 35.6512 7.54578C34.9838 9.75831 34.6521 10.9795 34.6521 11.1742C34.6521 12.2185 35.7062 13.6523 37.8165 15.4755C39.9286 17.3163 40.9828 18.927 40.9828 20.3076C40.9828 21.405 40.5391 22.5023 39.6499 23.9538Z" fill="white"/>
<path d="M49.7944 28.9435C51.8459 29.3208 53.5523 30.3708 54.9104 32.0608C56.2813 33.7672 56.9668 35.7362 56.9668 37.9348C56.9668 40.2155 56.1886 42.2661 54.634 44.1037C52.9292 46.0727 50.6715 47.0736 47.8563 47.0736C46.8944 47.0736 45.9677 46.9424 45.0794 46.7291C44.8014 46.6471 44.2965 46.4833 43.5631 46.2044L43.4129 46.1547C43.79 46.286 45.4277 42.9721 45.4133 42.9557C46.0045 43.2674 46.8193 43.4147 47.8563 43.4147C49.5595 43.4147 50.9112 42.8573 51.9114 41.758C52.9116 40.6586 53.4117 39.3787 53.4117 37.9348C53.4117 36.6386 53.0043 35.4899 52.1894 34.4562C51.4688 33.5538 50.5741 32.9634 49.5068 32.668C50.1331 30.5679 50.3488 29.0415 49.7448 28.9266L49.7944 28.9435Z" fill="white"/>
</g>
</g>
<defs>
<linearGradient id="paint0_linear" x1="64.5" y1="0" x2="0.5" y2="64" gradientUnits="userSpaceOnUse">
<stop stop-color="#FFD028"/>
<stop offset="1" stop-color="#F8522D"/>
</linearGradient>
<clipPath id="clip0">
<rect x="0.5" width="64" height="64" rx="32" fill="white"/>
</clipPath>
</defs>
</svg>
