<?xml version="1.0" encoding="UTF-8" standalone="no"?>
<svg
   xmlns:dc="http://purl.org/dc/elements/1.1/"
   xmlns:cc="http://creativecommons.org/ns#"
   xmlns:rdf="http://www.w3.org/1999/02/22-rdf-syntax-ns#"
   xmlns:svg="http://www.w3.org/2000/svg"
   xmlns="http://www.w3.org/2000/svg"
   xmlns:sodipodi="http://sodipodi.sourceforge.net/DTD/sodipodi-0.dtd"
   xmlns:inkscape="http://www.inkscape.org/namespaces/inkscape"
   width="225"
   height="47.805"
   viewBox="0 0 225 47.805"
   version="1.1"
   id="svg221"
   sodipodi:docname="logo_hillel.svg"
   style="fill:none"
   inkscape:version="0.92.4 (f8dce91, 2019-08-02)">
  <metadata
     id="metadata227">
    <rdf:RDF>
      <cc:Work
         rdf:about="">
        <dc:format>image/svg+xml</dc:format>
        <dc:type
           rdf:resource="http://purl.org/dc/dcmitype/StillImage" />
        <dc:title></dc:title>
      </cc:Work>
    </rdf:RDF>
  </metadata>
  <defs
     id="defs225" />
  <sodipodi:namedview
     pagecolor="#ffffff"
     bordercolor="#666666"
     borderopacity="1"
     objecttolerance="10"
     gridtolerance="10"
     guidetolerance="10"
     inkscape:pageopacity="0"
     inkscape:pageshadow="2"
     inkscape:window-width="1299"
     inkscape:window-height="713"
     id="namedview223"
     showgrid="false"
     inkscape:zoom="3.0814286"
     inkscape:cx="37.893966"
     inkscape:cy="25.473809"
     inkscape:window-x="67"
     inkscape:window-y="27"
     inkscape:window-maximized="1"
     inkscape:current-layer="svg221"
     showguides="true"
     inkscape:guide-bbox="true">
    <sodipodi:guide
       position="-3.5697728,0.1622624"
       orientation="0,1"
       id="guide5018"
       inkscape:locked="false" />
  </sodipodi:namedview>
  <g
     id="g5173"
     transform="translate(113.26211,16.805122)">
    <path
       id="path207"
       d="M 105.28,18.5424 91.381,18.545 c 0.3358,-4.2911 3.5047,-6.2083 6.9151,-6.2083 3.4099,0 6.5909,1.8051 6.9839,6.2057 z m 1.163,-6.1602 c -2.019,-2.40675 -5.482,-3.56567 -8.0615,-3.56567 -6.9721,0 -10.8811,5.59917 -10.8811,11.10767 -0.0253,3.2194 1.0703,5.9972 3.1499,8.0851 1.9422,1.95 4.509,2.9906 7.7764,2.9906 3.0003,0 6.5973,-1.2133 8.9943,-4.412 l -2.779,-1.8005 c -1.604,2.2062 -4.616,2.6569 -6.2153,2.6569 -3.9884,0 -6.3589,-2.8368 -7.1577,-5.7541 h 17.472 c 0.602,-3.2177 -0.43,-7.082 -2.298,-9.308 z"
       inkscape:connector-curvature="0"
       style="fill:#4ed401" />
    <path
       id="path209"
       d="m 11.5657,8.85144 c 6.1077,0 11.0657,4.93996 11.0657,11.02466 0,6.0842 -4.958,11.0242 -11.0657,11.0242 -6.10706,0 -11.065692,-4.94 -11.065692,-11.0242 0,-6.0847 4.958632,-11.02466 11.065692,-11.02466 z m 0,3.65426 c 4.1068,0 7.4405,3.3212 7.4405,7.4125 0,4.0907 -3.3337,7.4119 -7.4405,7.4119 -4.10617,0 -7.43988,-3.3212 -7.43988,-7.4119 0,-4.0913 3.33371,-7.4125 7.43988,-7.4125 z"
       inkscape:connector-curvature="0"
       style="clip-rule:evenodd;fill:#4ed401;fill-rule:evenodd" />
    <path
       style="fill:#4ed401"
       inkscape:connector-curvature="0"
       id="path211"
       d="M 49,30.837738 V 7.2771376 c 0,-2.47624 0.7146,-3.68571 2.0128,-4.41577 1.1388,-0.64034 1.3931,-0.79073 1.794,-0.99884 L 53,1.7614216 V 30.837738 Z" />
    <path
       style="fill:#4ed401"
       inkscape:connector-curvature="0"
       id="path213"
       d="m 29.3599,9.8377776 1.0234,1.5570604 c 0,0 0.7131,-0.65847 1.7024,-1.04942 1.4918,-0.5864304 2.8395,-0.6738804 4.578,-0.5195604 C 41.7663,10.324838 45,13.658238 45,19.100738 v 11.737 h -4 v -10.7262 c 0,-3.3591 -0.8437,-4.5423 -2.433,-5.4168 -2.2451,-1.2346 -6.0462,-0.9825 -8.567,0.643 v 15.5 H 26 V 9.8377776 Z" />
    <path
       style="fill:#4ed401"
       inkscape:connector-curvature="0"
       id="path215"
       d="m 68.3599,9.8377576 1.0234,1.5570804 c 0,0 0.7131,-0.65849 1.7024,-1.04944 1.4918,-0.5864304 2.8395,-0.6738804 4.578,-0.5195604 C 80.7663,10.324818 84,13.658238 84,19.100638 v 11.7371 h -4 v -10.7262 c 0,-3.3591 -0.8437,-4.5423 -2.433,-5.4168 -2.2451,-1.2346 -6.0462,-0.9825 -8.567,0.643 v 15.5 H 65 V 9.8377576 Z" />
    <path
       style="fill:#4ed401"
       inkscape:connector-curvature="0"
       id="path217"
       d="M 60.8106,9.8981776 C 60.4124,10.106148 60.3598,10.140458 59.2182,10.767718 57.3843,11.798738 57,12.943238 57,15.283238 v 15.5545 h 4 V 9.8002576 Z" />
    <path
       style="fill:#4ed401"
       inkscape:connector-curvature="0"
       id="path219"
       d="m 61.0017,5.5876876 -0.1652,0.08741 c -0.4183,0.20577 -1.0327,0.43732 -1.7866,0.83856 -0.8571,0.46297 -1.2341,0.68415 -2.0499,1.39918 v -1.15742 c 0,-1.37348 0.2892,-2.87553 1.9879,-3.83234 1.136,-0.64301 1.42,-0.77685 1.8176,-0.98775 l 0.1962,-0.097712 z" />
  </g>
  <g
     style="fill:#fffdff;fill-opacity:1"
     id="g4209"
     transform="matrix(1.2216014,0,0,1.2216014,0.09917526,4.0546532e-4)">
    <path
       id="path4177"
       d="M 12.5205,22.7881 C 14.1453,23.6587 15,24.622 15,27.9994 v 11.0005 h 5 V 26.5183 c 0,-5.4728 -3.454,-9.0406 -8.5822,-9.542 -1.74736,-0.1575 -3.2115,-0.0146 -4.74885,0.4701 -0.53922,0.168 -0.94751,0.3884 -1.38884,0.6535 L 4.98352,18.277 5,4.88879 4.80757,4.98715 C 4.41225,5.19469 3.58003,5.57936 2.44302,6.20282 0.616613,7.22928 0,8.46579 0,11.103 v 27.8969 h 5 v -15.5 L 5.08827,23.442 c 2.28866,-1.4911 5.35143,-1.7658 7.43223,-0.6539 z"
       inkscape:connector-curvature="0"
       style="fill:#fffdff;fill-opacity:1" />
    <path
       id="path4179"
       d="m 58.929637,25.869361 0.0159,-0.2101 c 0.2765,-3.5324 3.485,-5.1419 6.3497,-5.1419 2.8739,0 6.1101,1.6079 6.4251,5.1394 l 0.0184,0.2126 z m 14.7104,-6.0321 c -1.9975,-2.3814 -4.907,-3.6925 -8.1892,-3.6925 h -0.0711 c -7.3671,0.043 -11.2228,5.7875 -11.2228,11.4374 -0.0251,3.1849 1.1529,6.2067 3.2311,8.2926 2.0239,2.0321 4.8041,3.1061 8.0365,3.1061 3.8369,0 7.1458,-1.7066 9.565,-4.9348 l 0.0841,-0.1113 -3.5353,-2.2409 -0.0698,0.0984 c -1.788,2.4588 -4.1678,2.7739 -6.044,2.7739 -3.5909,0 -5.8808,-2.4038 -6.4912,-4.6335 l -0.0669,-0.2471 h 17.1154 l 0.0209,-0.1067 c 0.6735,-3.5995 -0.1882,-7.1503 -2.3627,-9.7416 z"
       inkscape:connector-curvature="0"
       style="fill:#fffdff;fill-opacity:1" />
    <path
       id="path4181"
       d="m 29.8088,15.3992 c -0.3966,0.2071 -1.0504,0.5906 -2.1875,1.2153 C 25.7949,17.6414 25,18.8779 25,21.5138 V 39 h 5 V 15.2992 Z"
       inkscape:connector-curvature="0"
       style="fill:#fffdff;fill-opacity:1" />
    <path
       id="path4183"
       d="M 45,39 V 11.1925 c 0,-2.63593 0.6179,-3.87244 2.4468,-4.90182 1.1345,-0.62221 1.9655,-1.00563 2.3608,-1.2115 L 50,5 v 34 z"
       inkscape:connector-curvature="0"
       style="fill:#fffdff;fill-opacity:1" />
    <path
       id="path4185"
       d="M 35,39 V 10.8999 C 35,8.26394 35.6166,7.02743 37.4468,5.99805 38.5801,5.37583 39.411,4.99242 39.8076,4.78654 L 40,4.68652 V 39 Z"
       inkscape:connector-curvature="0"
       style="fill:#fffdff;fill-opacity:1" />
    <path
       id="path4187"
       d="M 79.685074,39 V 11.1925 c 0,-2.63596 0.6179,-3.87247 2.448,-4.90185 1.1333,-0.62221 1.9643,-1.00563 2.3608,-1.2115 l 0.1912,-0.10002 V 39 Z"
       inkscape:connector-curvature="0"
       style="fill:#fffdff;fill-opacity:1" />
    <path
       id="path4189"
       d="m 27.0249,13.717 c 0.589,-0.3688 1.1466,-0.6418 1.5947,-0.8598 0.7153,-0.3505 1.3319,-0.6539 1.7904,-1.1485 2.2493,-2.42597 1.6775,-6.153 1.6511,-6.31054 L 31.998,5.01392 31.8173,5.35899 C 31.8068,5.37733 30.7924,7.28231 29.0145,8.60384 28.8133,8.7522 28.5652,8.9189 28.274,9.11478 c -0.535,0.35966 -1.2031,0.806 -2.0067,1.43322 -2.6446,2.065 -2.6735,5.4832 -2.6735,5.6278 v 0.3676 l 0.2318,-0.2863 c 0.0029,-0.005 0.9094,-1.1077 3.1993,-2.5401 z"
       inkscape:connector-curvature="0"
       style="fill:#fffdff;fill-opacity:1" />
    <path
       id="path4191"
       d="m 26.4631,6.80518 c 1.211,-0.75724 2.0728,-1.34695 2.63,-1.94666 1.7528,-1.8904 1.2851,-4.388421 1.2625,-4.493443 L 30.2845,0 30.113,0.328402 c -0.0051,0.011669 -0.7748,1.467388 -2.1502,2.488858 -0.1477,0.11002 -0.3267,0.23088 -0.5376,0.37133 -0.4246,0.28506 -0.958,0.64346 -1.58,1.12773 -2.0465,1.59742 -2.0699,4.24548 -2.0699,4.35675 v 0.36925 l 0.233,-0.28756 c 0.0042,-0.00542 0.6786,-0.83768 2.4548,-1.94958 z"
       inkscape:connector-curvature="0"
       style="fill:#fffdff;fill-opacity:1" />
  </g>
</svg>
