<?xml version="1.0" encoding="UTF-8" standalone="no"?>
<svg
   xmlns:dc="http://purl.org/dc/elements/1.1/"
   xmlns:cc="http://creativecommons.org/ns#"
   xmlns:rdf="http://www.w3.org/1999/02/22-rdf-syntax-ns#"
   xmlns:svg="http://www.w3.org/2000/svg"
   xmlns="http://www.w3.org/2000/svg"
   xmlns:sodipodi="http://sodipodi.sourceforge.net/DTD/sodipodi-0.dtd"
   xmlns:inkscape="http://www.inkscape.org/namespaces/inkscape"
   width="109"
   height="31"
   viewBox="0 0 109 31"
   fill="none"
   version="1.1"
   id="svg221"
   sodipodi:docname="online.svg"
   inkscape:version="0.92.4 (f8dce91, 2019-08-02)">
  <metadata
     id="metadata227">
    <rdf:RDF>
      <cc:Work
         rdf:about="">
        <dc:format>image/svg+xml</dc:format>
        <dc:type
           rdf:resource="http://purl.org/dc/dcmitype/StillImage" />
        <dc:title></dc:title>
      </cc:Work>
    </rdf:RDF>
  </metadata>
  <defs
     id="defs225" />
  <sodipodi:namedview
     pagecolor="#ffffff"
     bordercolor="#666666"
     borderopacity="1"
     objecttolerance="10"
     gridtolerance="10"
     guidetolerance="10"
     inkscape:pageopacity="0"
     inkscape:pageshadow="2"
     inkscape:window-width="1299"
     inkscape:window-height="713"
     id="namedview223"
     showgrid="false"
     inkscape:zoom="6.1628573"
     inkscape:cx="54.1725"
     inkscape:cy="-3.4968276"
     inkscape:window-x="67"
     inkscape:window-y="27"
     inkscape:window-maximized="1"
     inkscape:current-layer="svg221" />
  <path
     d="m 105.28,18.475192 -13.899,0.0026 c 0.3358,-4.314251 3.5047,-6.241794 6.9151,-6.241794 3.4099,0 6.5909,1.814838 6.9839,6.23918 z m 1.163,-6.193435 c -2.019,-2.4197344 -5.482,-3.5849068 -8.0615,-3.5849068 -6.9721,0 -10.8811,5.6293778 -10.8811,11.1675958 -0.0253,3.236769 1.0703,6.029555 3.1499,8.12872 1.9422,1.96052 4.509,3.006734 7.7764,3.006734 3.0003,0 6.5973,-1.219846 8.9943,-4.435803 l -2.779,-1.810214 c -1.604,2.218103 -4.616,2.671234 -6.2153,2.671234 -3.9884,0 -6.3589,-2.852104 -7.1577,-5.785143 h 17.472 c 0.602,-3.23506 -0.43,-7.120208 -2.298,-9.358217 z"
     id="path207"
     inkscape:connector-curvature="0"
     style="fill:#4ed401;stroke-width:1.00269389" />
  <path
     d="m 11.5657,8.7319486 c 6.1077,0 11.0657,4.9666114 11.0657,11.0841384 0,6.117024 -4.958,11.083676 -11.0657,11.083676 -6.10706,0 -11.065692,-4.966652 -11.065692,-11.083676 0,-6.117527 4.958632,-11.0841384 11.065692,-11.0841384 z m 0,3.6739744 c 4.1068,0 7.4405,3.339118 7.4405,7.452491 0,4.112769 -3.3337,7.451887 -7.4405,7.451887 -4.10617,0 -7.43988,-3.339118 -7.43988,-7.451887 0,-4.113373 3.33371,-7.452491 7.43988,-7.452491 z"
     id="path209"
     inkscape:connector-curvature="0"
     style="clip-rule:evenodd;fill:#4ed401;fill-rule:evenodd;stroke-width:1.00269389" />
  <path
     d="M 49,29.994505 V 6.306795 c 0,-2.4895994 0.7146,-3.7055945 2.0128,-4.4395932 1.1388,-0.6437946 1.3931,-0.794996 1.794,-1.00422873 L 53,0.7613216 V 29.994505 Z"
     id="path211"
     inkscape:connector-curvature="0"
     style="fill:#4ed401;stroke-width:1.00269389" />
  <path
     d="m 29.3599,8.8812497 1.0234,1.5654603 c 0,0 0.7131,-0.6620224 1.7024,-1.0550815 1.4918,-0.5895939 2.8395,-0.6775156 4.578,-0.5223631 C 41.7663,9.3709374 45,12.722321 45,18.194184 V 29.994505 H 41 V 19.210437 C 41,15.833214 40.1563,14.643631 38.567,13.764413 36.3219,12.523152 32.5208,12.776613 30,14.410882 V 29.994505 H 26 V 8.8812497 Z"
     id="path213"
     inkscape:connector-curvature="0"
     style="fill:#4ed401;stroke-width:1.00269389" />
  <path
     d="m 68.3599,8.9606558 1.0234,1.5654802 c 0,0 0.7131,-0.6620423 1.7024,-1.0551014 C 72.5775,8.8814407 73.9252,8.793519 75.6637,8.9486715 80.7663,9.4503435 84,12.801747 84,18.273509 V 30.073931 H 80 V 19.289863 c 0,-3.377222 -0.8437,-4.566806 -2.433,-5.446024 -2.2451,-1.24126 -6.0462,-0.9878 -8.567,0.646469 V 30.073931 H 65 V 8.9606558 Z"
     id="path215"
     inkscape:connector-curvature="0"
     style="fill:#4ed401;stroke-width:1.00269389" />
  <path
     d="M 60.8106,8.9420761 C 60.4124,9.1511681 60.3598,9.1856632 59.2182,9.8163073 57.3843,10.85289 57,12.003564 57,14.356189 v 15.638417 h 4 V 8.8436278 Z"
     id="path217"
     inkscape:connector-curvature="0"
     style="fill:#4ed401;stroke-width:1.00269389" />
  <path
     d="m 61.0017,4.6083309 -0.1652,0.087882 C 60.4182,4.9030926 59.8038,5.1358919 59.0499,5.5392966 58.1928,6.0047643 57.8158,6.2271376 57,6.9460252 V 5.7823609 c 0,-1.38089 0.2892,-2.8910436 1.9879,-3.8530156 1.136,-0.6464791 1.42,-0.7810411 1.8176,-0.99307893 l 0.1962,-0.0982392 z"
     id="path219"
     inkscape:connector-curvature="0"
     style="fill:#4ed401;stroke-width:1.00269389" />
</svg>
