<svg width="116" height="16" viewBox="0 0 116 16" fill="none" xmlns="http://www.w3.org/2000/svg">
<path d="M105.388 13.223C103.184 13.223 101.319 11.7382 100.749 9.71613H112.998L114.685 7.08846L100.745 7.08763C101.316 5.05971 103.177 3.57283 105.388 3.57283L113.796 3.57408L115.484 0.946411H105.192C101.079 0.946411 97.7418 4.28212 97.7418 8.39792C97.7418 12.5129 101.079 15.8486 105.192 15.8486H114.034L115.718 13.223H105.388ZM70.336 15.8486C66.2239 15.8486 62.8845 12.5129 62.8845 8.39792C62.8845 4.28212 66.2239 0.946411 70.336 0.946411H80.628L78.942 3.57408L70.5297 3.57283C67.8633 3.57283 65.7038 5.73319 65.7038 8.39792C65.7038 11.0635 67.8633 13.223 70.5297 13.223H80.8612L79.179 15.8486H70.336ZM15.9193 13.223C18.5844 13.223 20.7427 11.0635 20.7427 8.39792C20.7427 5.73319 18.5844 3.57408 15.9193 3.57408L7.64352 3.57283C4.9792 3.57283 2.81925 5.73319 2.81925 8.39792C2.81925 11.0635 4.9792 13.223 7.64352 13.223H15.9193ZM7.45151 15.8486C3.33737 15.8486 0 12.5129 0 8.39792C0 4.28212 3.33737 0.946411 7.45151 0.946411H16.1121C20.2271 0.946411 23.5624 4.28212 23.5624 8.39792C23.5624 12.5146 20.2271 15.8503 16.1121 15.8503L7.45151 15.8486ZM37.6266 11.0243C40.4083 11.0243 42.6641 8.76652 42.6641 5.98517C42.6641 3.20256 40.4083 0.946411 37.6266 0.946411H25.0867V15.8486H27.9506V3.57283H37.4296C38.7644 3.57283 39.8407 4.65155 39.8407 5.98517C39.8407 7.31628 38.7644 8.39792 37.4296 8.39792L29.3541 8.39501L37.9056 15.8486H42.0685L36.3146 11.0206L37.6266 11.0243ZM85.032 13.2193V0.946411H82.1661V14.4209C82.1661 14.7936 82.3173 15.1489 82.5826 15.4146C82.8642 15.6941 83.2353 15.8486 83.6334 15.8486H96.6997L98.3853 13.2193H85.032ZM49.9523 10.5904H57.5979L53.5596 4.08054L46.1443 15.8486L42.7645 15.8503L51.7911 1.71984C52.1743 1.14466 52.8349 0.799805 53.5542 0.799805C54.2643 0.799805 54.9161 1.13508 55.3005 1.69444L64.3585 15.8503L60.9765 15.8486L59.3905 13.2172H51.6425L49.9523 10.5904Z" fill="#ED1F24"/>
</svg>
