<?xml version="1.0" encoding="UTF-8" standalone="no"?>
<svg
   xmlns:dc="http://purl.org/dc/elements/1.1/"
   xmlns:cc="http://creativecommons.org/ns#"
   xmlns:rdf="http://www.w3.org/1999/02/22-rdf-syntax-ns#"
   xmlns:svg="http://www.w3.org/2000/svg"
   xmlns="http://www.w3.org/2000/svg"
   xmlns:sodipodi="http://sodipodi.sourceforge.net/DTD/sodipodi-0.dtd"
   xmlns:inkscape="http://www.inkscape.org/namespaces/inkscape"
   width="20"
   height="198"
   viewBox="0 0 20 198"
   version="1.1"
   id="svg935"
   sodipodi:docname="sprite.svg"
   style="fill:none"
   inkscape:version="0.92.4 (f8dce91, 2019-08-02)">
  <metadata
     id="metadata941">
    <rdf:RDF>
      <cc:Work
         rdf:about="">
        <dc:format>image/svg+xml</dc:format>
        <dc:type
           rdf:resource="http://purl.org/dc/dcmitype/StillImage" />
        <dc:title></dc:title>
      </cc:Work>
    </rdf:RDF>
  </metadata>
  <defs
     id="defs939">
    <linearGradient
       gradientUnits="userSpaceOnUse"
       y2="64"
       x2="0.5"
       y1="0"
       x1="64.5"
       id="paint0_linear">
      <stop
         id="stop988"
         stop-color="#FFD028" />
      <stop
         id="stop990"
         stop-color="#F8522D"
         offset="1" />
    </linearGradient>
    <clipPath
       id="clip0">
      <rect
         id="rect993"
         rx="32"
         height="64"
         width="64"
         x="0.5"
         y="0"
         style="fill:#ffffff" />
    </clipPath>
  </defs>
  <sodipodi:namedview
     pagecolor="#ffffff"
     bordercolor="#666666"
     borderopacity="1"
     objecttolerance="10"
     gridtolerance="10"
     guidetolerance="10"
     inkscape:pageopacity="0"
     inkscape:pageshadow="2"
     inkscape:window-width="1309"
     inkscape:window-height="713"
     id="namedview937"
     showgrid="false"
     inkscape:zoom="9.2709556"
     inkscape:cx="12.314662"
     inkscape:cy="156.96959"
     inkscape:window-x="57"
     inkscape:window-y="27"
     inkscape:window-maximized="1"
     inkscape:current-layer="svg935"
     showguides="true"
     inkscape:guide-bbox="true">
    <sodipodi:guide
       position="0,27.991525"
       orientation="1,0"
       id="guide1637"
       inkscape:locked="false" />
    <sodipodi:guide
       position="20,18"
       orientation="1,0"
       id="guide1639"
       inkscape:locked="false" />
  </sodipodi:namedview>
  <g
     id="g1792"
     transform="translate(0,114)">
    <path
       style="fill:#4ed401"
       inkscape:connector-curvature="0"
       id="path933"
       d="m 20,64 c 0,1.57144 0,17.9986 0,17.9986 H -0.00146265 C -0.001194,75.9994 -0.0338732,69.9992 1.81235e-6,64.000098 H 3 V 65.5 c 0,0.62833 0.75278,1.5 1.5,1.5 0.31933,0 2,0 2,0 C 7.38055,66.92423 8,66.25169 8,65.5 v -1.499902 h 4 V 65.49859 C 12,65.95788 12.5,67 13.5,67 c 0,0 1.4543,0 2,0 0.5457,0 1.5,-0.5 1.5,-1.50141 v -1.498492 c 1.1964,0 1.8036,2.6e-5 3,-9.8e-5 z M 18,80 17.9707,68.42717 H 2 V 80 Z" />
    <g
       transform="translate(3.0629364,61.985456)"
       id="g1545"
       style="fill:none">
      <path
         style="clip-rule:evenodd;fill:#4ed401;fill-rule:evenodd"
         inkscape:connector-curvature="0"
         d="M 3.85718,0.714321 C 3.85718,0.320035 3.53575,3.52859e-5 3.14289,3.52859e-5 H 1.57146 C 1.17861,3.52859e-5 0.857178,0.320035 0.857178,0.714321 V 2.85718 c 0,0.39428 0.321432,0.71428 0.714282,0.71428 h 1.57143 c 0.39286,0 0.71429,-0.32 0.71429,-0.71428 z m 9.14282,0 C 13,0.32075 12.6786,3.52859e-5 12.2857,3.52859e-5 L 10.7143,0 C 10.3214,0 10,0.320714 10,0.714286 V 2.85714 c 0,0.395 0.3214,0.71429 0.7143,0.71429 l 1.5714,3e-5 C 12.6786,3.57146 13,3.25218 13,2.85718 Z"
         id="path1534" />
    </g>
  </g>
  <g
     id="g1716"
     transform="translate(0,174)">
    <g
       transform="translate(-0.08474572,-23.991526)"
       id="g1635"
       style="fill:none">
      <path
         style="fill:#4ed401"
         inkscape:connector-curvature="0"
         d="M 20,3.9025 18.6915,5.45476 14.1116,1.59906 15.4194,0.0468018 Z M 5.84108,1.55226 1.30775,5.45476 0,3.9025 4.53178,0 Z M 11,6 v 5 L 15,13.5 13.738,15 9.01783,12.1318 V 6 Z"
         id="path1624" />
    </g>
    <g
       transform="translate(0.92346466,-21.853552)"
       id="g1710"
       style="fill:none">
      <path
         style="fill:#4ed401"
         inkscape:connector-curvature="0"
         d="M 2.61232,2.63899 C 4.38377,0.880184 6.51339,0 9.00039,0 11.4874,0 13.6093,0.879402 15.3652,2.63899 17.1212,4.39779 18,6.51852 18,9.00039 18,11.4823 17.122,13.6022 15.3652,15.3618 13.6093,17.1206 11.4874,18 9.00039,18 6.51339,18 4.39151,17.1206 2.63398,15.3618 0.877992,13.603 0,11.4823 0,9.00039 0,6.51852 0.871804,4.39779 2.61232,2.63899 Z M 4.05733,13.9477 c 1.36766,1.3828 3.01534,2.0746 4.94306,2.0746 1.92621,0 3.57541,-0.684 4.94301,-2.0511 1.3677,-1.3664 2.0515,-3.0228 2.0515,-4.97159 0,-1.91514 -0.6838,-3.56451 -2.0515,-4.94732 -1.3676,-1.38203 -3.0168,-2.07305 -4.94301,-2.07305 -1.92772,0 -3.5754,0.69102 -4.94306,2.07305 -1.36843,1.38203 -2.05149,3.03218 -2.05149,4.9481 0,1.91511 0.68306,3.56531 2.05149,4.94811 z"
         id="path1699" />
    </g>
  </g>
  <g
     style="fill:none"
     id="g1787"
     transform="translate(0,119.43505)">
    <path
       id="path1776"
       d="M 7.08547,5.69852 C 12.7608,0.0232158 19.9994,-2.44141e-4 19.9994,-2.44141e-4 L 20,3.22313e-4 c 0,0 -0.0229,7.239207687 -5.6982,12.914477687 -0.2627,0.2627 -0.5443,0.4973 -0.8398,0.7047 0.073,1.0004 0.0326,2.5286 -0.752,3.3124 -1.8402,1.8402 -4.8948,2.4682 -4.8948,2.4682 L 8.41369,15.3658 7.03215,15.3735 4.62652,12.9678 4.63396,11.5857 0.598881,12.1838 c 0,0 0.628019,-3.05461 2.468199,-4.89478 C 3.85135,6.50402 5.38081,6.46421 6.38141,6.53748 6.58868,6.24231 6.82305,5.96095 7.08547,5.69852 Z M 12.033,5.84766 c -0.0796,0.20084 -0.1184,0.41514 -0.114,0.63027 0.0085,0.42032 0.1809,0.81887 0.4805,1.11068 0.2996,0.2918 0.7026,0.45377 1.1231,0.45137 0.4205,-0.00239 0.8253,-0.16897 1.128,-0.46421 C 14.9533,7.28053 15.13,6.88 15.143,6.45955 15.1497,6.24436 15.1132,6.03048 15.0357,5.83054 14.9583,5.63059 14.8414,5.44861 14.692,5.29534 14.5426,5.14207 14.3636,5.0206 14.1658,4.93809 13.9679,4.85558 13.7551,4.81371 13.5398,4.81494 13.3246,4.81616 13.1113,4.86047 12.9126,4.94524 12.7138,5.03 12.5336,5.15352 12.3825,5.30851 12.2315,5.46349 12.1126,5.64681 12.033,5.84766 Z M 6.60832,16.109 c -0.02419,0.0342 -0.0449,0.0706 -0.06564,0.107 -0.03541,0.0621 -0.07092,0.1244 -0.12405,0.1768 -1.42284,1.4228 -3.54204,0.7276 -3.54204,0.7276 0,0 -0.69693,-2.1186 0.72763,-3.542 0.05198,-0.052 0.11233,-0.0865 0.17284,-0.121 0.03758,-0.0215 0.07523,-0.043 0.11097,-0.0687 L 3.22867,12.727 c -0.57003,0.148 -1.09186,0.4451 -1.51152,0.8607 -1.993241,1.9932 -1.702294,6.3945 -1.702294,6.3945 0,0 4.375444,0.3167 6.394484,-1.7023 0.43339,-0.4334 0.71222,-0.9595 0.86064,-1.5116 z"
       inkscape:connector-curvature="0"
       style="clip-rule:evenodd;fill:#4ed401;fill-rule:evenodd" />
  </g>
  <g
     style="fill:none"
     id="g978"
     transform="translate(-0.022,90.302504)">
    <path
       id="path967"
       d="M 14.736,10.486 C 14.6369,10.4608 14.5352,10.4477 14.433,10.447 L 14.42,10.449 C 12.9634,10.2668 11.5614,9.78029 10.305,9.021 L 8.399,10.97 C 6.99,10.02 5.768,8.75 4.818,7.437 H 4.813 4.818 L 6.727,5.488 C 5.96784,4.22406 5.48174,2.81516 5.3,1.352 L 5.303,1.328 C 5.303,1.223 5.287,1.117 5.264,1.02 5.19674,0.73102 5.03402,0.473156 4.80212,0.288073 4.57023,0.10299 4.2827,0.00149978 3.986,0 H 1.317 C 0.601,0 0.02,0.573 0.003,1.285 0.003,1.296 0,1.306 0,1.317 0,1.394 0.01,1.468 0.022,1.54 c 0.264974,2.7827 1.26705,5.44444 2.903,7.711 0.99294,1.3755 2.20071,2.5822 3.577,3.574 2.26478,1.6342 4.9239,2.6359 7.704,2.902 0.074,0.013 0.15,0.023 0.227,0.023 0.011,0 0.022,-0.003 0.033,-0.004 0.3432,-0.0076 0.6697,-0.1493 0.9097,-0.3947 0.24,-0.2454 0.3744,-0.575 0.3743,-0.9183 v -2.669 c 0,-0.622 -0.434,-1.142 -1.014,-1.278 z"
       inkscape:connector-curvature="0"
       style="fill:#ffffff" />
  </g>
  <g
     style="fill:none"
     id="g1015"
     transform="matrix(0.28987537,0,0,0.28987537,0.55506232,63.29048)">
    <g
       id="g986"
       clip-path="url(#clip0)">
      <rect
         id="rect976"
         rx="32"
         height="64"
         width="64"
         x="0.5"
         y="0"
         style="fill:url(#paint0_linear)" />
      <path
         id="path978"
         d="m 49.7514,28.9136 c 2.0742,0.3894 -5.5174,17.5426 -6.3327,17.2311 -0.7394,0.993 -1.9244,2.2392 -3.555,3.7579 -0.5176,0.5451 -1.2209,1.2851 -2.1102,1.2851 H 26.4231 c -0.8893,0 -1.5927,-0.74 -2.1122,-1.2851 -3.0355,-2.7259 -5.3315,-5.9969 -6.8881,-9.8131 -2.0724,-5.0817 -3.1095,-9.3067 -3.1095,-12.6556 0,-1.0709 1.0371,-2.4922 1.7766,-2.4922 h 31.9949 c 0.4455,0 1.7784,1.8886 1.7784,2.4922 0,0.6036 -0.0379,1.1098 -0.1118,1.4797 z"
         inkscape:connector-curvature="0"
         style="fill:#ffffff" />
      <g
         id="g984"
         style="opacity:0.7">
        <path
           id="path980"
           d="M 39.6499,23.9538 H 27.3184 c -0.1479,-0.4071 -0.8703,-0.8673 -2.1653,-1.7346 -1.2968,-0.8496 -1.9453,-1.8054 -1.9453,-2.8498 0,-0.8319 0.3147,-1.6106 0.9442,-2.3363 0.6295,-0.7257 1.3519,-1.2215 2.1671,-1.5047 -0.2218,0.8319 -0.3336,1.5578 -0.3336,2.1773 0,0.6372 0.7224,1.4868 2.1671,2.6019 1.4429,1.0974 2.1652,2.071 2.1652,2.9029 0,0.4071 -0.036,0.5486 -0.1099,0.7433 h 6.2207 c 0.1479,-0.6904 0.2219,-0.9912 0.2219,-1.2567 0,-1.0443 -0.5176,-1.9471 -1.5548,-2.7082 -1.0371,-0.7611 -2.0742,-1.5929 -3.1113,-2.531 -1.0371,-0.9381 -1.5547,-2.0888 -1.5547,-3.4694 0,-1.4514 0.5006,-2.8142 1.4998,-4.05323 0.9992,-1.23902 2.2409,-2.03549 3.7217,-2.38949 -0.6674,2.21253 -0.9991,3.43372 -0.9991,3.62842 0,1.0443 1.0541,2.4781 3.1644,4.3013 2.1121,1.8408 3.1663,3.4515 3.1663,4.8321 0,1.0974 -0.4437,2.1947 -1.3329,3.6462 z"
           inkscape:connector-curvature="0"
           style="fill:#ffffff" />
        <path
           id="path982"
           d="m 49.7944,28.9435 c 2.0515,0.3773 3.7579,1.4273 5.116,3.1173 1.3709,1.7064 2.0564,3.6754 2.0564,5.874 0,2.2807 -0.7782,4.3313 -2.3328,6.1689 -1.7048,1.969 -3.9625,2.9699 -6.7777,2.9699 -0.9619,0 -1.8886,-0.1312 -2.7769,-0.3445 -0.278,-0.082 -0.7829,-0.2458 -1.5163,-0.5247 l -0.1502,-0.0497 c 0.3771,0.1313 2.0148,-3.1826 2.0004,-3.199 0.5912,0.3117 1.406,0.459 2.443,0.459 1.7032,0 3.0549,-0.5574 4.0551,-1.6567 1.0002,-1.0994 1.5003,-2.3793 1.5003,-3.8232 0,-1.2962 -0.4074,-2.4449 -1.2223,-3.4786 -0.7206,-0.9024 -1.6153,-1.4928 -2.6826,-1.7882 0.6263,-2.1001 0.842,-3.6265 0.238,-3.7414 z"
           inkscape:connector-curvature="0"
           style="fill:#ffffff" />
      </g>
    </g>
  </g>
  <rect
     style="fill:#fed530;stroke-width:0.36194098"
     y="33.951534"
     x="0.2550005"
     width="19.544813"
     height="9.4104662"
     rx="4.7052331"
     id="rect915" />
  <path
     style="fill:#1f3c6d;stroke-width:0.36194098"
     inkscape:connector-curvature="0"
     d="m 4.9354416,35.867827 0.7037942,1.970696 h 1.830046 L 5.9210431,38.964304 6.5013069,40.935 4.9354416,39.808749 3.3695763,40.935 3.9503468,38.964304 2.402108,37.838523 h 1.8295393 z"
     id="path917" />
  <g
     style="fill:none"
     id="g5173"
     transform="matrix(0.17907046,0,0,0.17907046,0.22746334,10.406734)">
    <path
       id="path207"
       d="M 105.28,18.5424 91.381,18.545 c 0.3358,-4.2911 3.5047,-6.2083 6.9151,-6.2083 3.4099,0 6.5909,1.8051 6.9839,6.2057 z m 1.163,-6.1602 c -2.019,-2.40675 -5.482,-3.56567 -8.0615,-3.56567 -6.9721,0 -10.8811,5.59917 -10.8811,11.10767 -0.0253,3.2194 1.0703,5.9972 3.1499,8.0851 1.9422,1.95 4.509,2.9906 7.7764,2.9906 3.0003,0 6.5973,-1.2133 8.9943,-4.412 l -2.779,-1.8005 c -1.604,2.2062 -4.616,2.6569 -6.2153,2.6569 -3.9884,0 -6.3589,-2.8368 -7.1577,-5.7541 h 17.472 c 0.602,-3.2177 -0.43,-7.082 -2.298,-9.308 z"
       inkscape:connector-curvature="0"
       style="fill:#4ed401" />
    <path
       id="path209"
       d="m 11.5657,8.85144 c 6.1077,0 11.0657,4.93996 11.0657,11.02466 0,6.0842 -4.958,11.0242 -11.0657,11.0242 -6.10706,0 -11.065692,-4.94 -11.065692,-11.0242 0,-6.0847 4.958632,-11.02466 11.065692,-11.02466 z m 0,3.65426 c 4.1068,0 7.4405,3.3212 7.4405,7.4125 0,4.0907 -3.3337,7.4119 -7.4405,7.4119 -4.10617,0 -7.43988,-3.3212 -7.43988,-7.4119 0,-4.0913 3.33371,-7.4125 7.43988,-7.4125 z"
       inkscape:connector-curvature="0"
       style="clip-rule:evenodd;fill:#4ed401;fill-rule:evenodd" />
    <path
       style="fill:#4ed401"
       inkscape:connector-curvature="0"
       id="path211"
       d="M 49,30.837738 V 7.2771376 c 0,-2.47624 0.7146,-3.68571 2.0128,-4.41577 1.1388,-0.64034 1.3931,-0.79073 1.794,-0.99884 L 53,1.7614216 V 30.837738 Z" />
    <path
       style="fill:#4ed401"
       inkscape:connector-curvature="0"
       id="path213"
       d="m 29.3599,9.8377776 1.0234,1.5570604 c 0,0 0.7131,-0.65847 1.7024,-1.04942 1.4918,-0.5864304 2.8395,-0.6738804 4.578,-0.5195604 C 41.7663,10.324838 45,13.658238 45,19.100738 v 11.737 h -4 v -10.7262 c 0,-3.3591 -0.8437,-4.5423 -2.433,-5.4168 -2.2451,-1.2346 -6.0462,-0.9825 -8.567,0.643 v 15.5 H 26 V 9.8377776 Z" />
    <path
       style="fill:#4ed401"
       inkscape:connector-curvature="0"
       id="path215"
       d="m 68.3599,9.8377576 1.0234,1.5570804 c 0,0 0.7131,-0.65849 1.7024,-1.04944 1.4918,-0.5864304 2.8395,-0.6738804 4.578,-0.5195604 C 80.7663,10.324818 84,13.658238 84,19.100638 v 11.7371 h -4 v -10.7262 c 0,-3.3591 -0.8437,-4.5423 -2.433,-5.4168 -2.2451,-1.2346 -6.0462,-0.9825 -8.567,0.643 v 15.5 H 65 V 9.8377576 Z" />
    <path
       style="fill:#4ed401"
       inkscape:connector-curvature="0"
       id="path217"
       d="M 60.8106,9.8981776 C 60.4124,10.106148 60.3598,10.140458 59.2182,10.767718 57.3843,11.798738 57,12.943238 57,15.283238 v 15.5545 h 4 V 9.8002576 Z" />
    <path
       style="fill:#4ed401"
       inkscape:connector-curvature="0"
       id="path219"
       d="m 61.0017,5.5876876 -0.1652,0.08741 c -0.4183,0.20577 -1.0327,0.43732 -1.7866,0.83856 -0.8571,0.46297 -1.2341,0.68415 -2.0499,1.39918 v -1.15742 c 0,-1.37348 0.2892,-2.87553 1.9879,-3.83234 1.136,-0.64301 1.42,-0.77685 1.8176,-0.98775 l 0.1962,-0.097712 z" />
  </g>
</svg>
